<svg width="126" height="126" viewBox="0 0 126 126" fill="none" xmlns="http://www.w3.org/2000/svg">
<path d="M57.456 35.5878L126 0V90.4122L57.456 126V35.5878Z" fill="#7765E3"/>
<path d="M78.4 65.5386V68.6746H103.264V65.5386H78.4ZM75.776 51.6506V54.8826H91.104V51.6506H75.776ZM93.92 49.6346V52.3226H102.368V49.6346H93.92ZM94.336 53.6986V56.1626H102.656V53.6986H94.336ZM94.176 57.5706V60.0666H102.496V57.5706H94.176ZM79.712 70.2746V73.3146H101.696V70.2746H79.712ZM76.384 74.9786V78.1146H104.992V74.9786H76.384ZM88.704 67.0746V76.9946H92.576V67.0746H88.704ZM81.696 48.6426V53.0266H85.28V48.6426H81.696ZM78.048 53.5066V59.0106C78.048 62.3386 78.976 63.5226 82.528 63.5226C83.168 63.5226 86.112 63.5226 86.88 63.5226C87.936 63.5226 89.12 63.4906 89.76 63.2666C89.6 62.4346 89.504 60.9946 89.408 60.0986C88.8 60.2266 87.584 60.3226 86.784 60.3226C86.048 60.3226 83.232 60.3226 82.56 60.3226C81.76 60.3226 81.568 59.9706 81.568 59.0746V53.5066H78.048ZM101.28 49.6346V50.2106C101.056 57.8906 100.768 60.6426 100.288 61.2826C100.064 61.6346 99.776 61.7306 99.392 61.6986C98.912 61.6986 98.048 61.6986 97.024 61.5706C97.44 62.3706 97.792 63.6186 97.856 64.4506C99.168 64.5146 100.416 64.5146 101.184 64.3866C102.08 64.2586 102.752 63.9706 103.36 63.2026C104.128 62.1786 104.448 59.1386 104.704 50.9786C104.736 50.5626 104.736 49.6346 104.736 49.6346H101.28ZM92.896 49.6346C92.768 55.6186 92.576 59.9386 89.152 62.4986C89.92 63.0746 90.88 64.2586 91.296 65.0586C95.552 61.9546 96.16 56.7066 96.32 49.6346H92.896Z" fill="white"/>
<path d="M0 35.5878L68.544 0V90.4122L0 126V35.5878Z" fill="#3B60E4"/>
<path d="M52.1746 54.3405L44.8466 76.7405H39.2786L34.3506 61.5725L29.2626 76.7405H23.7266L16.3666 54.3405H21.7426L26.7986 70.0845L32.0786 54.3405H36.8786L41.9986 70.2125L47.2146 54.3405H52.1746Z" fill="white"/>
</svg>
